<svg width="72" height="73" viewBox="0 0 72 73" fill="none" xmlns="http://www.w3.org/2000/svg">
<rect width="72" height="73" rx="15" fill="#333333"/>
<path d="M25.2308 56H19.0769C18.2609 56 17.4782 55.6757 16.9012 55.0988C16.3242 54.5218 16 53.7391 16 52.9231V28.3077M16 28.3077H56M16 28.3077L22.8 17.5385C23.0631 17.0823 23.439 16.7013 23.8915 16.4319C24.3441 16.1625 24.8582 16.0138 25.3846 16H46.6154C47.1418 16.0138 47.656 16.1625 48.1086 16.4319C48.5609 16.7013 48.9369 17.0823 49.2 17.5385L56 28.3077M56 28.3077V52.9231C56 53.7391 55.6757 54.5218 55.0988 55.0988C54.5218 55.6757 53.7391 56 52.9231 56H46.7692M28.3076 45.2308L35.9999 37.5385M35.9999 37.5385L43.6922 45.2308M35.9999 37.5385L36.0001 56M36.0001 16V28.3077" stroke="#BDDEB4" stroke-width="1.42857" stroke-linecap="round" stroke-linejoin="round"/>
</svg>
