<svg width="72" height="73" viewBox="0 0 72 73" fill="none" xmlns="http://www.w3.org/2000/svg">
<rect width="72" height="73" rx="15" fill="#333333"/>
<g clip-path="url(#clip0_1937_21031)">
<path d="M45.8521 30.1626L34.0628 43.4185L28.1681 38.9999M38.0522 57.8043C37.375 58.0652 36.6248 58.0652 35.9476 57.8043C30.6635 55.7764 26.1191 52.1947 22.9147 47.5314C19.7102 42.8681 17.9966 37.3431 18 31.686V22.9215C18 22.1467 18.308 21.4036 18.8561 20.8557C19.4043 20.3078 20.1478 20 20.9231 20H53.0768C53.852 20 54.5956 20.3078 55.1438 20.8557C55.692 21.4036 56 22.1467 56 22.9215V31.686C56.0032 37.3431 54.2897 42.8681 51.0853 47.5314C47.8807 52.1947 43.3364 55.7764 38.0522 57.8043Z" stroke="#BDDEB4" stroke-width="1.43" stroke-linecap="round" stroke-linejoin="round"/>
</g>
<defs>
<clipPath id="clip0_1937_21031">
<rect width="40" height="40" fill="white" transform="translate(17 19)"/>
</clipPath>
</defs>
</svg>
